Coordinates
version=1
nRows=32
nColumns=12
inDegrees=yes

Units are S.I. units (second, meters, Newtons, ...)
Angles are in degrees

endheader
time	SC_y	SC_z	SC_x	AC_y	AC_z	AC_x	GH_y	GH_z	GH_yy	EL_x	PS_y
       0.0              -33.27          8.701          29.03          63.52          9.758         -15.29         -69.41          61.91         -176.8          137.8          68.75
  0.009905              -33.27            8.7          29.03          63.52          9.756         -15.29          -69.4          61.91         -176.7          137.8          68.76
   0.01981              -33.27          8.699          29.04          63.52          9.753         -15.28         -69.39          61.91         -176.7          137.8          68.77
   0.02972              -33.27          8.698          29.04          63.52           9.75         -15.28         -69.38           61.9         -176.6          137.8          68.79
   0.03962              -33.28          8.697          29.04          63.52          9.747         -15.27         -69.37           61.9         -176.6          137.8           68.8
   0.04953              -33.28          8.696          29.05          63.53          9.744         -15.27         -69.36           61.9         -176.5          137.7          68.81
   0.05943              -33.28          8.695          29.05          63.53           9.74         -15.26         -69.35           61.9         -176.4          137.7          68.82
   0.06934              -33.28          8.693          29.05          63.53          9.736         -15.26         -69.33          61.89         -176.4          137.7          68.84
   0.07924              -33.29          8.692          29.06          63.53          9.732         -15.25         -69.32          61.89         -176.3          137.7          68.85
   0.08915              -33.29           8.69          29.06          63.53          9.728         -15.24         -69.31          61.89         -176.2          137.6          68.87
   0.09905               -33.3          8.688          29.07          63.53          9.723         -15.23         -69.29          61.89         -176.1          137.6          68.89
     0.109               -33.3          8.686          29.07          63.53          9.719         -15.23         -69.27          61.88         -176.0          137.6          68.91
    0.1189               -33.3          8.684          29.08          63.53          9.713         -15.22         -69.25          61.88         -175.9          137.5          68.93
    0.1288              -33.31          8.682          29.08          63.54          9.707         -15.21         -69.23          61.87         -175.8          137.5          68.95
    0.1387              -33.31          8.679          29.09          63.54          9.701          -15.2         -69.21          61.87         -175.6          137.4          68.97
    0.1486              -33.32          8.677          29.09          63.54          9.694         -15.19         -69.19          61.86         -175.5          137.4           69.0
    0.1585              -33.33          8.674           29.1          63.54          9.687         -15.18         -69.16          61.86         -175.4          137.4          69.03
    0.1684              -33.33          8.671          29.11          63.54          9.679         -15.16         -69.14          61.85         -175.2          137.3          69.06
    0.1783              -33.34          8.667          29.12          63.55           9.67         -15.15          -69.1          61.85         -175.0          137.2          69.09
    0.1882              -33.35          8.664          29.13          63.55           9.66         -15.14         -69.07          61.84         -174.8          137.2          69.13
    0.1981              -33.36           8.66          29.14          63.55           9.65         -15.12         -69.04          61.83         -174.6          137.1          69.17
     0.208              -33.37          8.655          29.15          63.56          9.638          -15.1         -68.99          61.83         -174.4          137.0          69.21
    0.2179              -33.38           8.65          29.16          63.56          9.625         -15.08         -68.95          61.82         -174.1          136.9          69.26
    0.2278              -33.39          8.645          29.18          63.56          9.611         -15.06          -68.9          61.81         -173.8          136.8          69.31
    0.2377              -33.41          8.638          29.19          63.57          9.595         -15.03         -68.85          61.79         -173.5          136.7          69.37
    0.2476              -33.42          8.632          29.21          63.57          9.578         -15.01         -68.79          61.78         -173.2          136.6          69.44
    0.2575              -33.44          8.624          29.23          63.58          9.558         -14.97         -68.72          61.77         -172.8          136.5          69.52
    0.2674              -33.46          8.615          29.25          63.59          9.536         -14.94         -68.64          61.75         -172.3          136.3           69.6
    0.2774              -33.48          8.606          29.27           63.6          9.511          -14.9         -68.55          61.73         -171.8          136.2           69.7
    0.2873               -33.5          8.595           29.3           63.6          9.482         -14.86         -68.45          61.71         -171.2          136.0          69.81
    0.2972              -33.53          8.582          29.33          63.61          9.449          -14.8         -68.34          61.69         -170.6          135.8          69.93
    0.3071              -33.56          8.568          29.37          63.62          9.412         -14.75         -68.21          61.66         -169.8          135.5          70.07
